<svg xmlns="http://www.w3.org/2000/svg" width="50" height="50" viewBox="0 0 479.85 464.76">
  <g id="Layer_2" data-name="Layer 2">
    <g id="Layer_1-2" data-name="Layer 1">
      <g>
        <path d="M239.83,219.64S103.35,79.42,200.05,0l39.78,46.69Z" fill="#e55c9c"/>
        <path d="M239.83,219.64S376.31,79.42,279.6,0L239.83,46.69Z" fill="#e14490"/>
        <path d="M262.87,244.14S336,62.63,447.69,119l-26.64,55.25Z" fill="#83b93d"/>
        <path d="M262.87,244.14s183.41,68.17,217-52.39l-58.8-17.51Z" fill="#66a639"/>
        <path d="M217,244.14S143.88,62.63,32.15,119l26.64,55.25Z" fill="#e4202d"/>
        <path d="M217,244.14S33.56,312.31,0,191.75l58.79-17.51Z" fill="#e96025"/>
        <path d="M259.24,263.65S452.06,296.94,420.45,418L360.84,403.6Z" fill="#20baed"/>
        <path d="M259.24,263.65s-28.08,193.64,96.84,201.11l4.76-61.16Z" fill="#19a8e0"/>
        <path d="M224.1,263.65S31.29,296.94,62.89,418L122.5,403.6Z" fill="#f28f31"/>
        <path d="M224.1,263.65s28.08,193.64-96.84,201.11L122.5,403.6Z" fill="#f9b52d"/>
        <path d="M253,247.6a13.21,13.21,0,1,1-13.21-13.21A13.2,13.2,0,0,1,253,247.6" fill="#9c9b9b"/>
        <path d="M239.83,262.24a14.64,14.64,0,1,1,14.64-14.64A14.66,14.66,0,0,1,239.83,262.24Zm0-26.42a11.78,11.78,0,1,0,11.78,11.78A11.79,11.79,0,0,0,239.83,235.82Z" fill="#9c9b9b"/>
      </g>
    </g>
  </g>
</svg>
